<?xml version="1.0" standalone="no"?>
<!DOCTYPE svg PUBLIC "-//W3C//DTD SVG 1.1//EN" "http://www.w3.org/Graphics/SVG/1.1/DTD/svg11.dtd">
<svg width="94mm" height="101mm" viewBox="-12 -100 94 101" xmlns="http://www.w3.org/2000/svg" version="1.1">
<title>OpenSCAD Model</title>
<path d="
M 5,-70 L 23,-70 L 23.2617,-70.0069 L 23.4707,-70.0178 L 23.9912,-70.0725 L 24.198,-70.1053
 L 24.71,-70.2141 L 24.9122,-70.2683 L 25.4099,-70.43 L 25.6053,-70.505 L 26.0833,-70.7178 L 26.2698,-70.8129
 L 26.7234,-71.0747 L 26.899,-71.1888 L 27.3222,-71.4963 L 27.4849,-71.628 L 27.8738,-71.9782 L 28.0218,-72.1262
 L 28.372,-72.5151 L 28.5037,-72.6778 L 28.8112,-73.101 L 28.9253,-73.2766 L 29.1871,-73.7302 L 29.2822,-73.9167
 L 29.495,-74.3947 L 29.57,-74.5901 L 29.7317,-75.0878 L 29.7859,-75.29 L 29.8947,-75.802 L 29.9275,-76.0088
 L 29.9822,-76.5293 L 29.9931,-76.7383 L 30,-77 L 30,-95 L 63,-95 L 63.2091,-94.989
 L 63.4158,-94.9563 L 63.618,-94.9021 L 63.8135,-94.8271 L 64,-94.7321 L 64.1756,-94.618 L 64.3383,-94.4863
 L 64.4863,-94.3383 L 64.618,-94.1756 L 64.7321,-94 L 64.8271,-93.8135 L 64.9021,-93.618 L 64.9563,-93.4158
 L 64.989,-93.2091 L 65,-93 L 65,-45 L 70,-45 L 70,-93 L 69.9931,-93.2617
 L 69.9822,-93.4707 L 69.9275,-93.9912 L 69.8947,-94.198 L 69.7859,-94.71 L 69.7317,-94.9122 L 69.57,-95.4099
 L 69.495,-95.6053 L 69.2822,-96.0833 L 69.1871,-96.2698 L 68.9253,-96.7234 L 68.8112,-96.899 L 68.5037,-97.3222
 L 68.372,-97.4849 L 68.0218,-97.8738 L 67.8738,-98.0218 L 67.4849,-98.372 L 67.3222,-98.5037 L 66.899,-98.8112
 L 66.7234,-98.9253 L 66.2698,-99.1871 L 66.0833,-99.2822 L 65.6053,-99.495 L 65.4099,-99.57 L 64.9122,-99.7317
 L 64.71,-99.7859 L 64.198,-99.8947 L 63.9912,-99.9275 L 63.4707,-99.9822 L 63.2617,-99.9931 L 63,-100
 L 25,-100 L 0,-75 L 0,-45 L 5,-45 z
M 6.25749,0.415161 L 7.47945,0.316681 L 8.66138,0.152542 L 9.80327,-0.07724 L 10.9051,-0.372696 L 11.9669,-0.73381
 L 12.9887,-1.16057 L 13.9705,-1.653 L 14.9044,-2.2076 L 15.7826,-2.82043 L 16.6052,-3.49147 L 17.372,-4.22075
 L 18.0832,-5.00822 L 18.7386,-5.85393 L 19.3384,-6.75786 L 19.8825,-7.71999 L 20.3667,-8.73116 L 20.7864,-9.78162
 L 21.1415,-10.8714 L 21.432,-12.0005 L 21.658,-13.1689 L 21.8194,-14.3766 L 21.9162,-15.6236 L 21.9485,-16.91
 L 21.8786,-18.8457 L 21.6688,-20.6752 L 21.3191,-22.3987 L 20.8295,-24.016 L 20.2001,-25.5272 L 19.4308,-26.9322
 L 18.5216,-28.2312 L 17.4725,-29.424 L 16.2992,-30.4927 L 15.0171,-31.419 L 13.6264,-32.2027 L 12.127,-32.844
 L 10.5189,-33.3427 L 8.80214,-33.699 L 6.97667,-33.9127 L 5.04251,-33.984 L 3.10854,-33.9135 L 1.28363,-33.702
 L -0.432205,-33.3495 L -2.03899,-32.856 L -3.53671,-32.2215 L -4.92537,-31.446 L -6.20496,-30.5295 L -7.37549,-29.472
 L -8.42174,-28.2887 L -9.32849,-26.9949 L -10.0957,-25.5905 L -10.7235,-24.0755 L -11.2117,-22.45 L -11.5605,-20.7139
 L -11.7697,-18.8672 L -11.8395,-16.91 L -11.7695,-14.9453 L -11.5597,-13.0879 L -11.2101,-11.3376 L -10.7205,-9.69449
 L -10.091,-8.15858 L -9.32173,-6.72987 L -8.41255,-5.40834 L -7.36349,-4.19398 L -6.19125,-3.10602 L -4.91255,-2.16312
 L -3.52737,-1.36528 L -2.03574,-0.712494 L -0.437622,-0.204773 L 1.26695,0.157867 L 3.078,0.375458 L 4.99551,0.447998
 z
M 3.89186,-5.11153 L 2.84789,-5.26012 L 1.8636,-5.50777 L 0.939011,-5.85449 L 0.0741119,-6.30028 L -0.73111,-6.84512
 L -1.47664,-7.48903 L -2.16249,-8.23199 L -2.77725,-9.06102 L -3.31006,-9.96312 L -3.76088,-10.9383 L -4.12975,-11.9865
 L -4.41663,-13.1078 L -4.62155,-14.3021 L -4.74451,-15.5695 L -4.78549,-16.91 L -4.74542,-18.2378 L -4.62524,-19.4903
 L -4.42493,-20.6674 L -4.14449,-21.7692 L -3.78392,-22.7957 L -3.34323,-23.7468 L -2.82243,-24.6226 L -2.22148,-25.423
 L -1.5471,-26.1381 L -0.805923,-26.7578 L 0.00202942,-27.2822 L 0.876755,-27.7112 L 1.81828,-28.045 L 2.82657,-28.2833
 L 3.90166,-28.4263 L 5.04352,-28.474 L 6.1685,-28.4259 L 7.22894,-28.2818 L 8.22487,-28.0416 L 9.15627,-27.7052
 L 10.0231,-27.2728 L 10.8255,-26.7443 L 11.5632,-26.1197 L 12.2365,-25.399 L 12.8374,-24.5937 L 13.3583,-23.7153
 L 13.799,-22.7638 L 14.1595,-21.7392 L 14.4399,-20.6416 L 14.6403,-19.4708 L 14.7605,-18.2269 L 14.8005,-16.91
 L 14.7606,-15.5319 L 14.641,-14.2347 L 14.4416,-13.0183 L 14.1625,-11.8827 L 13.8036,-10.828 L 13.365,-9.85419
 L 12.8466,-8.96117 L 12.2485,-8.14899 L 11.5769,-7.42548 L 10.8382,-6.79843 L 10.0323,-6.26785 L 9.15926,-5.83374
 L 8.21906,-5.49611 L 7.2117,-5.25493 L 6.13718,-5.11023 L 4.99551,-5.062 z
M 44.5957,-0.0389404 L 45.9915,-0.155807 L 47.3041,-0.350571 L 48.5335,-0.623245 L 49.6798,-0.973816 L 50.743,-1.4023
 L 51.7229,-1.90869 L 52.6198,-2.493 L 53.4216,-3.14851 L 54.1165,-3.86856 L 54.7044,-4.65314 L 55.1855,-5.50224
 L 55.5597,-6.41588 L 55.827,-7.39406 L 55.9873,-8.43675 L 56.0408,-9.54399 L 56.0075,-10.3778 L 55.9078,-11.1696
 L 55.7417,-11.9195 L 55.509,-12.6275 L 55.2099,-13.2935 L 54.8443,-13.9176 L 54.4123,-14.4998 L 53.9138,-15.04
 L 53.352,-15.5344 L 52.7297,-15.9788 L 52.0469,-16.3731 L 51.3035,-16.7172 L 50.4996,-17.0113 L 49.6352,-17.2553
 L 48.7103,-17.4492 L 47.7248,-17.593 L 48.5067,-17.7851 L 49.2371,-18.017 L 49.9158,-18.2886 L 50.543,-18.6
 L 51.1186,-18.9511 L 51.6426,-19.342 L 52.115,-19.7726 L 52.5358,-20.243 L 52.9061,-20.7474 L 53.227,-21.2796
 L 53.4986,-21.8396 L 53.7208,-22.4275 L 53.8936,-23.0432 L 54.017,-23.6866 L 54.0911,-24.3579 L 54.1158,-25.057
 L 54.0666,-26.0652 L 53.919,-27.0099 L 53.6731,-27.8911 L 53.3288,-28.7087 L 52.8861,-29.4628 L 52.345,-30.1534
 L 51.7056,-30.7805 L 50.9678,-31.344 L 50.1344,-31.8427 L 49.2079,-32.275 L 48.1882,-32.6407 L 47.0753,-32.94
 L 45.8692,-33.1727 L 44.5699,-33.339 L 43.1774,-33.4387 L 41.6918,-33.472 L 26.3688,-33.472 L 26.3688,-0
 L 43.1168,-0 z
M 33.3748,-19.968 L 33.3748,-28.271 L 41.3588,-28.271 L 42.044,-28.2561 L 42.6858,-28.2115 L 43.2841,-28.1371
 L 43.839,-28.033 L 44.3504,-27.8991 L 44.8183,-27.7355 L 45.2428,-27.5421 L 45.6238,-27.319 L 45.9608,-27.0608
 L 46.2529,-26.7617 L 46.5,-26.4217 L 46.7023,-26.0407 L 46.8595,-25.6189 L 46.9719,-25.1562 L 47.0393,-24.6525
 L 47.0618,-24.108 L 47.0408,-23.6067 L 46.9778,-23.1377 L 46.8729,-22.701 L 46.726,-22.2967 L 46.5372,-21.9248
 L 46.3063,-21.5852 L 46.0335,-21.2779 L 45.7188,-21.003 L 45.3578,-20.7604 L 44.946,-20.5502 L 44.4833,-20.3723
 L 43.9698,-20.2267 L 43.4053,-20.1135 L 42.79,-20.0327 L 42.1238,-19.9842 L 41.4068,-19.968 z
M 33.3748,-5.20099 L 33.3748,-14.79 L 42.2618,-14.79 L 43.8436,-14.7166 L 45.2144,-14.4962 L 46.3744,-14.1291
 L 47.3235,-13.615 L 48.0617,-12.9541 L 48.5889,-12.1462 L 48.9053,-11.1916 L 49.0108,-10.09 L 48.9864,-9.49808
 L 48.9135,-8.94431 L 48.7918,-8.4287 L 48.6215,-7.95125 L 48.4026,-7.51195 L 48.1349,-7.11081 L 47.8187,-6.74782
 L 47.4538,-6.42299 L 47.0364,-6.13658 L 46.5621,-5.88837 L 46.0311,-5.67833 L 45.4433,-5.50648 L 44.7986,-5.37283
 L 44.0971,-5.27737 L 43.3389,-5.22009 L 42.5238,-5.20099 z
M 71.1703,0.40239 L 72.3959,0.265549 L 73.5472,0.0375061 L 74.6243,-0.281738 L 75.627,-0.69223 L 76.5554,-1.19392
 L 77.4096,-1.78685 L 78.1895,-2.47099 L 78.8858,-3.23695 L 79.4893,-4.07487 L 80,-4.98471 L 80.4177,-5.96649
 L 80.7427,-7.02022 L 80.9748,-8.14587 L 81.1141,-9.34346 L 81.1605,-10.613 L 81.1605,-33.472 L 67.4945,-33.472
 L 67.4945,-27.986 L 74.1785,-27.986 L 74.1785,-10.449 L 74.1616,-9.81517 L 74.1108,-9.21918 L 74.0262,-8.66104
 L 73.9077,-8.14075 L 73.7554,-7.65829 L 73.5693,-7.21368 L 73.3493,-6.80692 L 73.0955,-6.43799 L 72.8092,-6.10986
 L 72.4912,-5.82549 L 72.1417,-5.58487 L 71.7605,-5.38799 L 71.3477,-5.23486 L 70.9032,-5.12549 L 70.4272,-5.05986
 L 69.9195,-5.03799 L 69.4215,-5.05745 L 68.9511,-5.1158 L 68.5081,-5.21307 L 68.0927,-5.34924 L 67.7049,-5.52432
 L 67.3446,-5.73831 L 67.0118,-5.9912 L 66.7065,-6.28299 L 66.4265,-6.61516 L 66.1696,-6.98918 L 65.9358,-7.40504
 L 65.725,-7.86275 L 65.5373,-8.36229 L 65.3726,-8.90369 L 65.231,-9.48691 L 65.1125,-10.112 L 58.1535,-9.092
 L 58.4144,-7.87762 L 58.7336,-6.75 L 59.111,-5.70912 L 59.5468,-4.75499 L 60.0408,-3.88762 L 60.5931,-3.10699
 L 61.2036,-2.41312 L 61.8725,-1.806 L 62.6084,-1.27771 L 63.4197,-0.81987 L 64.3064,-0.432465 L 65.2685,-0.115494
 L 66.3059,0.131027 L 67.4187,0.307114 L 68.6069,0.412781 L 69.8705,0.447998 z
" stroke="black" fill="black" stroke-width="0.5"/>
</svg>
