<?xml version="1.0" standalone="no"?>
<!DOCTYPE svg PUBLIC "-//W3C//DTD SVG 1.1//EN" "http://www.w3.org/Graphics/SVG/1.1/DTD/svg11.dtd">
<svg width="91mm" height="101mm" viewBox="-11 -100 91 101" xmlns="http://www.w3.org/2000/svg" version="1.1">
<title>OpenSCAD Model</title>
<path d="
M 5,-70 L 23,-70 L 23.2617,-70.0069 L 23.4707,-70.0178 L 23.9912,-70.0725 L 24.198,-70.1053
 L 24.71,-70.2141 L 24.9122,-70.2683 L 25.4099,-70.43 L 25.6053,-70.505 L 26.0833,-70.7178 L 26.2698,-70.8129
 L 26.7234,-71.0747 L 26.899,-71.1888 L 27.3222,-71.4963 L 27.4849,-71.628 L 27.8738,-71.9782 L 28.0218,-72.1262
 L 28.372,-72.5151 L 28.5037,-72.6778 L 28.8112,-73.101 L 28.9253,-73.2766 L 29.1871,-73.7302 L 29.2822,-73.9167
 L 29.495,-74.3947 L 29.57,-74.5901 L 29.7317,-75.0878 L 29.7859,-75.29 L 29.8947,-75.802 L 29.9275,-76.0088
 L 29.9822,-76.5293 L 29.9931,-76.7383 L 30,-77 L 30,-95 L 63,-95 L 63.2091,-94.989
 L 63.4158,-94.9563 L 63.618,-94.9021 L 63.8135,-94.8271 L 64,-94.7321 L 64.1756,-94.618 L 64.3383,-94.4863
 L 64.4863,-94.3383 L 64.618,-94.1756 L 64.7321,-94 L 64.8271,-93.8135 L 64.9021,-93.618 L 64.9563,-93.4158
 L 64.989,-93.2091 L 65,-93 L 65,-45 L 70,-45 L 70,-93 L 69.9931,-93.2617
 L 69.9822,-93.4707 L 69.9275,-93.9912 L 69.8947,-94.198 L 69.7859,-94.71 L 69.7317,-94.9122 L 69.57,-95.4099
 L 69.495,-95.6053 L 69.2822,-96.0833 L 69.1871,-96.2698 L 68.9253,-96.7234 L 68.8112,-96.899 L 68.5037,-97.3222
 L 68.372,-97.4849 L 68.0218,-97.8738 L 67.8738,-98.0218 L 67.4849,-98.372 L 67.3222,-98.5037 L 66.899,-98.8112
 L 66.7234,-98.9253 L 66.2698,-99.1871 L 66.0833,-99.2822 L 65.6053,-99.495 L 65.4099,-99.57 L 64.9122,-99.7317
 L 64.71,-99.7859 L 64.198,-99.8947 L 63.9912,-99.9275 L 63.4707,-99.9822 L 63.2617,-99.9931 L 63,-100
 L 25,-100 L 0,-75 L 0,-45 L 5,-45 z
M 35.2956,0.535812 L 36.5991,0.415237 L 37.8208,0.21431 L 38.9609,-0.0669861 L 40.0193,-0.42868 L 40.9961,-0.870743
 L 41.8911,-1.39317 L 42.7044,-1.99599 L 43.4286,-2.67274 L 44.0563,-3.41649 L 44.5874,-4.22725 L 45.0219,-5.105
 L 45.3599,-6.04974 L 45.6013,-7.06149 L 45.7462,-8.14024 L 45.7944,-9.286 L 45.7619,-10.0777 L 45.6644,-10.8333
 L 45.5019,-11.5528 L 45.2744,-12.2362 L 44.9819,-12.8836 L 44.6244,-13.4948 L 44.2019,-14.0699 L 43.7144,-14.609
 L 43.167,-15.1047 L 42.5642,-15.5495 L 41.906,-15.9432 L 41.1924,-16.286 L 40.4235,-16.5777 L 39.5992,-16.8185
 L 38.7195,-17.0082 L 37.7844,-17.147 L 37.7844,-17.242 L 38.6265,-17.4294 L 39.4177,-17.6591 L 40.158,-17.931
 L 40.8474,-18.2452 L 41.486,-18.6018 L 42.0737,-19.0005 L 42.6105,-19.4416 L 43.0964,-19.925 L 43.5282,-20.4472
 L 43.9023,-21.0042 L 44.2189,-21.5962 L 44.4779,-22.223 L 44.6794,-22.8847 L 44.8233,-23.5812 L 44.9097,-24.3127
 L 44.9384,-25.079 L 44.8922,-26.0954 L 44.7535,-27.055 L 44.5223,-27.9579 L 44.1987,-28.804 L 43.7826,-29.5934
 L 43.274,-30.326 L 42.673,-31.0019 L 41.9794,-31.621 L 41.2038,-32.1748 L 40.3566,-32.6548 L 39.4376,-33.0609
 L 38.4469,-33.3932 L 37.3846,-33.6517 L 36.2506,-33.8363 L 35.0448,-33.9471 L 33.7675,-33.984 L 32.561,-33.9459
 L 31.4133,-33.8315 L 30.3242,-33.6409 L 29.2937,-33.374 L 28.3219,-33.0309 L 27.4088,-32.6115 L 26.5543,-32.1159
 L 25.7585,-31.544 L 25.0317,-30.905 L 24.3844,-30.2075 L 23.8166,-29.4515 L 23.3282,-28.637 L 22.9193,-27.764
 L 22.5899,-26.8325 L 22.3399,-25.8425 L 22.1694,-24.794 L 28.8435,-24.32 L 28.9079,-24.8247 L 29.0061,-25.2999
 L 29.1382,-25.7456 L 29.3042,-26.1617 L 29.504,-26.5484 L 29.7376,-26.9054 L 30.0051,-27.233 L 30.3065,-27.531
 L 30.6372,-27.7965 L 30.9928,-28.0267 L 31.3733,-28.2214 L 31.7787,-28.3807 L 32.209,-28.5047 L 32.6643,-28.5932
 L 33.1444,-28.6463 L 33.6495,-28.664 L 34.1859,-28.6456 L 34.6893,-28.5905 L 35.1597,-28.4986 L 35.5969,-28.37
 L 36.0012,-28.2046 L 36.3723,-28.0025 L 36.7104,-27.7636 L 37.0154,-27.488 L 37.2859,-27.1803 L 37.5203,-26.8448
 L 37.7187,-26.4814 L 37.8809,-26.0902 L 38.0072,-25.6712 L 38.0973,-25.2243 L 38.1514,-24.7496 L 38.1694,-24.247
 L 38.1468,-23.7167 L 38.0788,-23.218 L 37.9654,-22.7507 L 37.8067,-22.315 L 37.6026,-21.9107 L 37.3533,-21.538
 L 37.0585,-21.1967 L 36.7184,-20.887 L 36.3336,-20.6116 L 35.9042,-20.3729 L 35.4301,-20.171 L 34.9115,-20.0057
 L 34.3481,-19.8772 L 33.7402,-19.7854 L 33.0876,-19.7303 L 32.3905,-19.712 L 30.2025,-19.712 L 30.2025,-14.321
 L 32.5334,-14.321 L 33.3057,-14.3023 L 34.0288,-14.2464 L 34.7029,-14.1531 L 35.3279,-14.0225 L 35.9039,-13.8546
 L 36.4308,-13.6494 L 36.9087,-13.4068 L 37.3374,-13.127 L 37.7164,-12.8121 L 38.0449,-12.4642 L 38.3228,-12.0836
 L 38.5502,-11.67 L 38.7271,-11.2236 L 38.8534,-10.7442 L 38.9292,-10.2321 L 38.9544,-9.687 L 38.9336,-9.09177
 L 38.8711,-8.53612 L 38.767,-8.02002 L 38.6212,-7.54349 L 38.4337,-7.10652 L 38.2046,-6.70912 L 37.9339,-6.35127
 L 37.6214,-6.03299 L 37.2717,-5.75314 L 36.8886,-5.51062 L 36.472,-5.3054 L 36.0219,-5.1375 L 35.5385,-5.0069
 L 35.0216,-4.91362 L 34.4712,-4.85765 L 33.8875,-4.83899 L 32.7398,-4.91438 L 31.7237,-5.14055 L 30.8393,-5.5175
 L 30.0865,-6.04524 L 29.4653,-6.72375 L 28.9757,-7.55305 L 28.6178,-8.53313 L 28.3914,-9.66399 L 21.5984,-9.06999
 L 21.7764,-7.93433 L 22.0368,-6.86731 L 22.3797,-5.86894 L 22.8049,-4.93924 L 23.3127,-4.0782 L 23.9028,-3.28581
 L 24.5754,-2.56207 L 25.3305,-1.907 L 26.1612,-1.32504 L 27.0611,-0.820679 L 28.03,-0.393921 L 29.0679,-0.0447388
 L 30.175,0.226822 L 31.3511,0.420807 L 32.5962,0.537201 L 33.9104,0.575989 z
M 5.04683,-13.327 L 13.4568,-0 L 20.8188,-0 L 9.67883,-17.603 L 19.8458,-33.472 L 12.4838,-33.472
 L 5.04683,-21.642 L -2.39017,-33.472 L -9.80017,-33.472 L 0.818832,-17.603 L -10.7732,-0 L -3.36316,-0
 z
M 64.8773,-0.0319214 L 66.0264,-0.127686 L 67.1417,-0.287292 L 68.2232,-0.510742 L 69.2709,-0.798035 L 70.2849,-1.14919
 L 71.265,-1.56416 L 72.2114,-2.043 L 73.1146,-2.58214 L 73.965,-3.17805 L 74.7627,-3.83076 L 75.5077,-4.54024
 L 76.2,-5.3065 L 76.8395,-6.12956 L 77.4263,-7.00938 L 77.9604,-7.946 L 78.4364,-8.93182 L 78.849,-9.9588
 L 79.1981,-11.0269 L 79.4837,-12.1362 L 79.7058,-13.2867 L 79.8645,-14.4783 L 79.9597,-15.7111 L 79.9914,-16.985
 L 79.919,-18.917 L 79.7019,-20.7336 L 79.3399,-22.4346 L 78.8332,-24.0202 L 78.1817,-25.4904 L 77.3854,-26.8451
 L 76.4443,-28.0843 L 75.3584,-29.208 L 74.1407,-30.2074 L 72.8034,-31.0735 L 71.3465,-31.8064 L 69.7702,-32.406
 L 68.0743,-32.8724 L 66.2589,-33.2055 L 64.3239,-33.4054 L 62.2694,-33.472 L 50.1534,-33.472 L 50.1534,-0
 L 63.6944,-0 z
M 57.1594,-5.41499 L 57.1594,-28.057 L 62.1254,-28.057 L 63.3889,-28.0126 L 64.5774,-27.8796 L 65.6909,-27.6578
 L 66.7294,-27.3472 L 67.6929,-26.948 L 68.5814,-26.4601 L 69.3949,-25.8834 L 70.1334,-25.218 L 70.7906,-24.4683
 L 71.3602,-23.6388 L 71.8421,-22.7294 L 72.2364,-21.7402 L 72.5431,-20.6712 L 72.7622,-19.5223 L 72.8936,-18.2936
 L 72.9374,-16.985 L 72.8958,-15.6836 L 72.7711,-14.452 L 72.5631,-13.2901 L 72.2719,-12.198 L 71.8976,-11.1756
 L 71.44,-10.223 L 70.8993,-9.34012 L 70.2754,-8.52699 L 69.5812,-7.79762 L 68.8291,-7.1655 L 68.0191,-6.63062
 L 67.1512,-6.19299 L 66.2254,-5.85262 L 65.2416,-5.6095 L 64.2,-5.46362 L 63.1004,-5.41499 z
" stroke="black" fill="black" stroke-width="0.5"/>
</svg>
